# 3ds Max Wavefront OBJ Exporter v0.97b - (c)2007 guruware
# File Created: 30.03.2015 12:25:26

mtllib valla.mtl

#
# object Cylinder003
#

v  -32.0921 20.8906 -61.8365
v  -40.3933 20.8906 -61.8365
v  -40.3933 20.6432 -61.7929
v  -32.0921 20.6432 -61.7929
v  -32.0921 21.2697 -62.1546
v  -40.3933 21.2697 -62.1546
v  -40.3933 21.1082 -61.9622
v  -32.0921 21.1082 -61.9621
v  -32.0921 21.3556 -62.6418
v  -40.3933 21.3556 -62.6419
v  -40.3933 21.3556 -62.3906
v  -32.0921 21.3556 -62.3906
v  -32.0921 21.1082 -63.0703
v  -40.3933 21.1082 -63.0703
v  -40.3933 21.2697 -62.8779
v  -32.0921 21.2697 -62.8779
v  -32.0921 20.6432 -63.2396
v  -40.3933 20.6432 -63.2396
v  -40.3933 20.8906 -63.1959
v  -32.0921 20.8906 -63.1959
v  -32.0921 20.1783 -63.0703
v  -40.3933 20.1783 -63.0703
v  -40.3933 20.3959 -63.1959
v  -32.0921 20.3959 -63.1959
v  -32.0921 19.9309 -62.6418
v  -40.3933 19.9309 -62.6419
v  -40.3933 20.0168 -62.8779
v  -32.0921 20.0168 -62.8779
v  -32.0921 20.0168 -62.1546
v  -40.3933 20.0168 -62.1546
v  -40.3933 19.9309 -62.3906
v  -32.0921 19.9309 -62.3906
v  -32.0921 20.3958 -61.8365
v  -40.3933 20.3958 -61.8365
v  -40.3933 20.1783 -61.9622
v  -32.0921 20.1783 -61.9622
v  -32.0921 14.1039 -61.8365
v  -40.3933 14.1039 -61.8365
v  -40.3933 13.8565 -61.7929
v  -32.0921 13.8565 -61.7929
v  -32.0921 14.4829 -62.1546
v  -40.3933 14.4829 -62.1546
v  -40.3933 14.3214 -61.9621
v  -32.0921 14.3214 -61.9621
v  -32.0921 14.5688 -62.6418
v  -40.3933 14.5688 -62.6418
v  -40.3933 14.5688 -62.3906
v  -32.0921 14.5688 -62.3906
v  -32.0921 14.3214 -63.0703
v  -40.3933 14.3214 -63.0703
v  -40.3933 14.4829 -62.8779
v  -32.0921 14.4829 -62.8779
v  -32.0921 13.8565 -63.2396
v  -40.3933 13.8565 -63.2396
v  -40.3933 14.1039 -63.1959
v  -32.0921 14.1039 -63.1959
v  -32.0921 13.3915 -63.0703
v  -40.3933 13.3915 -63.0703
v  -40.3933 13.6091 -63.1959
v  -32.0921 13.6091 -63.1959
v  -32.0921 13.1441 -62.6418
v  -40.3933 13.1448 -62.6436
v  -40.3933 13.2301 -62.8779
v  -32.0921 13.2301 -62.8779
v  -32.0921 13.2301 -62.1546
v  -40.3933 13.2301 -62.1546
v  -40.3933 13.1441 -62.3906
v  -32.0921 13.1441 -62.3906
v  -32.0921 13.6091 -61.8365
v  -40.3933 13.6091 -61.8365
v  -40.3933 13.3915 -61.9621
v  -32.0921 13.3915 -61.9621
v  -41.2296 0.0000 -60.2181
v  -41.2296 0.0000 -64.9968
v  -40.3933 0.0000 -64.9968
v  -40.3933 0.0000 -60.2181
v  -41.2296 24.8496 -60.2181
v  -40.3933 24.8496 -60.2181
v  -40.3933 24.8496 -64.9968
v  -41.2296 24.8496 -64.9968
v  -32.0098 0.0000 -60.2181
v  -32.0098 0.0000 -64.9968
v  -31.1735 0.0000 -64.9968
v  -31.1735 0.0000 -60.2181
v  -32.0098 24.8496 -60.2181
v  -31.1735 24.8496 -60.2181
v  -31.1735 24.8496 -64.9968
v  -32.0098 24.8496 -64.9968
# 88 vertices

vn -0.0000 0.3420 0.9397
vn -0.0000 -0.0000 1.0000
vn -0.0000 0.8660 0.5000
vn -0.0000 0.6428 0.7660
vn -0.0000 0.9848 -0.1736
vn -0.0000 0.9848 0.1736
vn 0.0000 0.6428 -0.7660
vn 0.0000 0.8660 -0.5000
vn 0.0000 0.0000 -1.0000
vn 0.0000 0.3420 -0.9397
vn 0.0000 -0.6428 -0.7660
vn 0.0000 -0.3420 -0.9397
vn 0.0000 -0.9848 -0.1736
vn 0.0000 -0.8660 -0.5000
vn -0.0000 -0.8660 0.5000
vn 0.0000 -0.9848 0.1736
vn -0.0000 -0.3420 0.9397
vn -0.0000 -0.6428 0.7660
vn 1.0000 0.0000 0.0000
vn 0.0000 -0.0000 -1.0000
vn -0.0000 -0.9848 -0.1736
vn -0.0000 -0.9846 -0.1749
vn -0.0000 -0.9850 0.1725
vn 0.0000 -1.0000 0.0000
vn -0.0000 1.0000 -0.0000
vn -1.0000 -0.0000 -0.0000
vn 1.0000 0.0000 -0.0000
vn 1.0000 -0.0000 -0.0000
# 28 vertex normals

vt 0.8056 0.0000 1.0000
vt 0.8056 0.9792 1.0000
vt 0.7500 0.9792 1.0000
vt 0.7500 0.0000 1.0000
vt 0.9167 0.0000 1.0000
vt 0.9167 0.9792 1.0000
vt 0.8611 0.9792 1.0000
vt 0.8611 0.0000 1.0000
vt 1.0278 0.0000 1.0000
vt 1.0278 0.9792 1.0000
vt 0.9722 0.9792 1.0000
vt 0.9722 0.0000 1.0000
vt 0.1389 0.0000 1.0000
vt 0.1389 0.9792 1.0000
vt 0.0833 0.9792 1.0000
vt 0.0833 0.0000 1.0000
vt 0.2500 0.0000 1.0000
vt 0.2500 0.9792 1.0000
vt 0.1944 0.9792 1.0000
vt 0.1944 0.0000 1.0000
vt 0.3611 0.0000 1.0000
vt 0.3611 0.9792 1.0000
vt 0.3056 0.9792 1.0000
vt 0.3056 0.0000 1.0000
vt 0.4722 0.0000 1.0000
vt 0.4722 0.9792 1.0000
vt 0.4167 0.9792 1.0000
vt 0.4167 0.0000 1.0000
vt 0.5833 0.0000 1.0000
vt 0.5833 0.9792 1.0000
vt 0.5278 0.9792 1.0000
vt 0.5278 0.0000 1.0000
vt 0.6944 0.0000 1.0000
vt 0.6944 0.9792 1.0000
vt 0.6389 0.9792 1.0000
vt 0.6389 0.0000 1.0000
vt 0.8214 0.8830 -0.2500
vt 0.9330 0.7500 -0.2500
vt 0.9924 0.5868 -0.2500
vt 0.5000 1.0000 -0.2500
vt 0.9924 0.4132 -0.2500
vt 0.9330 0.2500 -0.2500
vt 0.6710 0.0302 -0.2500
vt 0.8214 0.1170 -0.2500
vt 0.5000 0.0000 -0.2500
vt 0.3290 0.0302 -0.2500
vt 0.0670 0.2500 -0.2500
vt 0.1786 0.1170 -0.2500
vt 0.0076 0.4132 -0.2500
vt 0.0076 0.5868 -0.2500
vt 0.1786 0.8830 -0.2500
vt 0.0670 0.7500 -0.2500
vt 0.3290 0.9698 -0.2500
vt 0.6710 0.9698 -0.2500
vt 0.0278 0.0000 1.0000
vt 0.0278 0.9792 1.0000
vt 1.0000 0.0000 0.0000
vt 1.0000 1.0000 0.0000
vt 0.0000 1.0000 0.0000
vt 0.0000 0.0000 0.0000
vt 0.5969 0.5763 0.0000
vt 0.6232 0.5676 0.0000
vt 0.5072 0.8021 0.0000
vt 0.4546 0.8021 0.0000
vt 0.6323 0.5576 0.0000
vt 0.3387 0.5676 0.0000
vt 0.3650 0.5763 0.0000
vt 0.4052 0.8055 0.0000
vt 0.4052 0.5828 0.0000
vt 0.4546 0.5863 0.0000
vt 0.5072 0.5863 0.0000
vt 0.5566 0.5828 0.0000
vt 0.6232 0.5477 0.0000
vt 0.5969 0.5389 0.0000
vt 0.3650 0.8120 0.0000
vt 0.3296 0.5576 0.0000
vt 0.3387 0.8208 0.0000
vt 0.3296 0.8307 0.0000
vt 0.3387 0.8407 0.0000
vt 0.3650 0.8494 0.0000
vt 0.4052 0.8559 0.0000
vt 0.4546 0.8594 0.0000
vt 0.5072 0.8594 0.0000
vt 0.5566 0.8559 0.0000
vt 0.5969 0.8494 0.0000
vt 0.6232 0.8407 0.0000
vt 0.6323 0.8307 0.0000
vt 0.6232 0.8208 0.0000
vt 0.5969 0.8120 0.0000
vt 0.5566 0.8055 0.0000
vt 0.5566 0.5324 0.0000
vt 0.5079 0.5290 0.0000
vt 0.4546 0.5289 0.0000
vt 0.4052 0.5324 0.0000
vt 0.3650 0.5389 0.0000
vt 0.3387 0.5477 0.0000
# 96 texture coords

g Cylinder003
usemtl wire_008061138
s 8
f 1/1/1 2/2/1 3/3/2 4/4/2 
f 5/5/3 6/6/3 7/7/4 8/8/4 
f 9/9/5 10/10/5 11/11/6 12/12/6 
f 13/13/7 14/14/7 15/15/8 16/16/8 
f 17/17/9 18/18/9 19/19/10 20/20/10 
f 21/21/11 22/22/11 23/23/12 24/24/12 
f 25/25/13 26/26/13 27/27/14 28/28/14 
f 29/29/15 30/30/15 31/31/16 32/32/16 
f 33/33/17 34/34/17 35/35/18 36/36/18 
s 1
f 36/37/19 29/38/19 32/39/19 4/40/19 
f 32/39/19 25/41/19 28/42/19 24/43/19 
f 28/42/19 21/44/19 24/43/19 
f 24/43/19 17/45/19 20/46/19 16/47/19 
f 20/46/19 13/48/19 16/47/19 
f 16/47/19 9/49/19 12/50/19 8/51/19 
f 12/50/19 5/52/19 8/51/19 
f 24/43/19 16/47/19 8/51/19 32/39/19 
f 8/51/19 1/53/19 4/40/19 32/39/19 
f 33/54/19 36/37/19 4/40/19 
s 8
f 37/1/1 38/2/1 39/3/2 40/4/2 
f 41/5/3 42/6/3 43/7/4 44/8/4 
f 45/9/5 46/10/5 47/11/6 48/12/6 
f 49/13/7 50/14/7 51/15/8 52/16/8 
f 53/17/9 54/18/20 55/19/10 56/20/10 
f 57/21/11 58/22/11 59/23/12 60/24/12 
f 61/25/21 62/26/22 63/27/14 64/28/14 
f 65/29/15 66/30/15 67/31/23 68/32/16 
f 69/33/17 70/34/17 71/35/18 72/36/18 
s 1
f 72/37/19 65/38/19 68/39/19 40/40/19 
f 68/39/19 61/41/19 64/42/19 60/43/19 
f 64/42/19 57/44/19 60/43/19 
f 60/43/19 53/45/19 56/46/19 52/47/19 
f 56/46/19 49/48/19 52/47/19 
f 52/47/19 45/49/19 48/50/19 44/51/19 
f 48/50/19 41/52/19 44/51/19 
f 60/43/19 52/47/19 44/51/19 68/39/19 
f 44/51/19 37/53/19 40/40/19 68/39/19 
f 69/54/19 72/37/19 40/40/19 
s 8
f 1/1/1 8/8/4 7/7/4 2/2/1 
f 5/5/3 12/12/6 11/11/6 6/6/3 
f 9/55/5 16/16/8 15/15/8 10/56/5 
f 13/13/7 20/20/10 19/19/10 14/14/7 
f 17/17/9 24/24/12 23/23/12 18/18/9 
f 21/21/11 28/28/14 27/27/14 22/22/11 
f 25/25/13 32/32/16 31/31/16 26/26/13 
f 29/29/15 36/36/18 35/35/18 30/30/15 
f 33/33/17 4/4/2 3/3/2 34/34/17 
f 37/1/1 44/8/4 43/7/4 38/2/1 
f 41/5/3 48/12/6 47/11/6 42/6/3 
f 45/55/5 52/16/8 51/15/8 46/56/5 
f 49/13/7 56/20/10 55/19/10 50/14/7 
f 53/17/9 60/24/12 59/23/12 54/18/20 
f 57/21/11 64/28/14 63/27/14 58/22/11 
f 61/25/21 68/32/16 67/31/23 62/26/22 
f 65/29/15 72/36/18 71/35/18 66/30/15 
f 69/33/17 40/4/2 39/3/2 70/34/17 
s 2
f 73/57/24 74/58/24 75/59/24 76/60/24 
s 4
f 77/60/25 78/57/25 79/58/25 80/59/25 
s 8
f 73/60/2 76/57/2 78/58/2 77/59/2 
s 32
f 75/60/9 74/57/9 80/58/9 79/59/9 
s 64
f 74/60/26 73/57/26 77/58/26 80/59/26 
s 16
f 50/61/27 55/62/27 26/63/19 31/64/19 
f 55/62/27 54/65/27 26/63/19 
f 38/66/19 43/67/28 30/68/19 
f 43/67/28 42/69/19 30/68/19 
f 42/69/19 47/70/19 30/68/19 
f 47/70/19 46/71/19 30/68/19 
f 46/71/19 51/72/19 30/68/19 
f 51/72/19 50/61/27 30/68/19 
f 31/64/19 30/68/19 50/61/27 
f 59/73/19 58/74/19 75/57/19 
f 30/68/19 35/75/27 76/60/19 39/76/19 
f 39/76/19 38/66/19 30/68/19 
f 35/75/27 34/77/27 76/60/19 
f 3/78/19 78/59/19 76/60/19 34/77/27 
f 3/78/19 2/79/19 78/59/19 
f 2/79/19 7/80/19 78/59/19 
f 79/58/19 78/59/19 7/80/19 6/81/19 
f 6/81/19 11/82/19 79/58/19 
f 11/82/19 10/83/19 79/58/19 
f 10/83/19 15/84/19 79/58/19 
f 15/84/19 14/85/19 79/58/19 
f 14/85/19 19/86/19 79/58/19 
f 19/86/19 18/87/19 79/58/19 
f 75/57/19 79/58/19 18/87/19 23/88/19 
f 23/88/19 22/89/19 75/57/19 
f 22/89/19 27/90/19 75/57/19 
f 26/63/19 54/65/27 75/57/19 27/90/19 
f 54/65/27 59/73/19 75/57/19 
f 58/74/19 63/91/19 75/57/19 
f 63/91/19 62/92/19 75/57/19 
f 62/92/19 67/93/19 75/57/19 
f 66/94/19 76/60/19 75/57/19 67/93/19 
f 66/94/19 71/95/27 76/60/19 
f 70/96/27 39/76/19 76/60/19 71/95/27 
s 2
f 81/57/24 82/58/24 83/59/24 84/60/24 
s 4
f 85/60/25 86/57/25 87/58/25 88/59/25 
s 8
f 81/60/2 84/57/2 86/58/2 85/59/2 
s 16
f 84/60/19 83/57/19 87/58/19 86/59/19 
s 32
f 83/60/9 82/57/9 88/58/9 87/59/9 
s 64
f 82/60/26 81/57/26 85/58/26 88/59/26 
# 67 polygons - 34 triangles

